<svg width="42" height="42" viewBox="0 0 42 42" fill="none" xmlns="http://www.w3.org/2000/svg">
<path d="M20.7559 9.83594C14.6214 9.83594 9.64844 14.8593 9.64844 21.0559C9.64844 27.2526 14.6214 32.2759 20.7559 32.2759C26.8904 32.2759 31.8633 27.2526 31.8633 21.0559C31.8633 14.8593 26.8904 9.83594 20.7559 9.83594Z" fill="black"/>
<path d="M1.71959 19.4609C0.843244 19.4609 0.132812 20.1784 0.132812 21.0635C0.132812 21.9486 0.843244 22.6661 1.71959 22.6661H6.47992C7.3563 22.6661 8.0667 21.9486 8.0667 21.0635C8.0667 20.1784 7.3563 19.4609 6.47992 19.4609H1.71959Z" fill="black"/>
<path d="M11.6653 33.0169C12.2849 32.3911 12.2849 31.3764 11.6653 30.7506C11.0455 30.1248 10.0409 30.1248 9.42126 30.7506L7.73816 32.4504C7.11853 33.0762 7.11853 34.0908 7.73816 34.7168C8.3578 35.3426 9.36255 35.3426 9.98218 34.7168L11.6653 33.0169Z" fill="black"/>
<path d="M9.98218 6.70373C9.36255 6.07792 8.3578 6.07792 7.73816 6.70373C7.11853 7.32953 7.11853 8.34427 7.73816 8.97007L9.42126 10.6699C10.0409 11.2957 11.0455 11.2957 11.6653 10.6699C12.2849 10.0439 12.2849 9.02936 11.6653 8.40356L9.98218 6.70373Z" fill="black"/>
<path d="M22.3454 1.82942C22.3454 0.944193 21.635 0.226562 20.7587 0.226562C19.8823 0.226562 19.1719 0.944193 19.1719 1.82942V6.63798C19.1719 7.52324 19.8823 8.24084 20.7587 8.24084C21.635 8.24084 22.3454 7.52324 22.3454 6.63798V1.82942Z" fill="black"/>
<path d="M34.2747 8.97007C34.8943 8.34427 34.8943 7.32953 34.2747 6.70373C33.6549 6.07792 32.6503 6.07792 32.0306 6.70373L30.3475 8.40356C29.7279 9.02936 29.7279 10.0439 30.3475 10.6699C30.9672 11.2957 31.9719 11.2957 32.5916 10.6699L34.2747 8.97007Z" fill="black"/>
<path d="M35.0477 19.4609C34.1713 19.4609 33.4609 20.1784 33.4609 21.0635C33.4609 21.9486 34.1713 22.6661 35.0477 22.6661H39.808C40.6844 22.6661 41.3948 21.9486 41.3948 21.0635C41.3948 20.1784 40.6844 19.4609 39.808 19.4609H35.0477Z" fill="black"/>
<path d="M32.5916 30.7506C31.9719 30.1248 30.9672 30.1248 30.3475 30.7506C29.7279 31.3764 29.7279 32.3911 30.3475 33.0169L32.0306 34.7168C32.6503 35.3426 33.6549 35.3426 34.2747 34.7168C34.8943 34.0908 34.8943 33.0762 34.2747 32.4504L32.5916 30.7506Z" fill="black"/>
<path d="M22.3454 35.4935C22.3454 34.6082 21.635 33.8906 20.7587 33.8906C19.8823 33.8906 19.1719 34.6082 19.1719 35.4935V40.302C19.1719 41.1873 19.8823 41.9049 20.7587 41.9049C21.635 41.9049 22.3454 41.1873 22.3454 40.302V35.4935Z" fill="black"/>
</svg>
