<svg width="512" height="512" viewBox="0 0 512 512" fill="none" xmlns="http://www.w3.org/2000/svg">
<rect width="512" height="512" rx="80" fill="#0B101D"/>
<path d="M303.804 398.468V356.664H283.039V398.468H228.94V356.664H208.448V398.468H171.289V418.96H340.689V398.468H303.804Z" fill="white"/>
<path d="M372.101 93H351.609V311.035H372.101V93Z" fill="#95FF00"/>
<path d="M320.179 189.996H299.688V310.762H320.179V189.996Z" fill="#95FF00"/>
<path d="M268.281 233.715H247.789V311.038H268.281V233.715Z" fill="#95FF00"/>
<path d="M361.724 367.046H113.361C86.5849 367.046 65 345.461 65 318.685V187.263C65 160.487 86.5849 138.902 113.361 138.902V159.394C98.0604 159.394 85.7652 171.689 85.7652 186.99V318.412C85.7652 333.713 98.0604 346.008 113.361 346.008H361.724V366.5V367.046Z" fill="white"/>
<path d="M335.806 138.91H155.477V159.402H335.806V138.91Z" fill="white"/>
<path d="M398.648 138.918H387.992V159.41H398.648C413.949 159.41 426.244 171.705 426.244 187.005V318.427C426.244 333.728 413.949 346.023 398.648 346.023V366.515C425.424 366.515 447.009 344.93 447.009 318.154V186.732C447.009 159.956 425.424 138.371 398.648 138.371V138.918Z" fill="white"/>
</svg>
