<svg width="40" height="40" viewBox="0 0 40 40" fill="none" xmlns="http://www.w3.org/2000/svg">
<path d="M33.75 7.5H32.5V6.25C32.4971 5.25633 32.1011 4.30419 31.3984 3.60156C30.6958 2.89892 29.7437 2.5029 28.75 2.5H6.25C5.25633 2.5029 4.30419 2.89892 3.60156 3.60156C2.89892 4.30419 2.5029 5.25633 2.5 6.25V28.75C2.5029 29.7437 2.89892 30.6958 3.60156 31.3984C4.30419 32.1011 5.25633 32.4971 6.25 32.5H7.5V33.75C7.5029 34.7437 7.89892 35.6958 8.60156 36.3984C9.30419 37.1011 10.2563 37.4971 11.25 37.5H33.75C34.7437 37.4971 35.6958 37.1011 36.3984 36.3984C37.1011 35.6958 37.4971 34.7437 37.5 33.75V11.25C37.4971 10.2563 37.1011 9.30419 36.3984 8.60156C35.6958 7.89892 34.7437 7.5029 33.75 7.5ZM6.25 30C5.91877 29.999 5.60139 29.867 5.36717 29.6328C5.13296 29.3986 5.00096 29.0812 5 28.75V6.25C5.00096 5.91877 5.13296 5.60139 5.36717 5.36717C5.60139 5.13296 5.91877 5.00096 6.25 5H28.75C29.0812 5.00096 29.3986 5.13296 29.6328 5.36717C29.867 5.60139 29.999 5.91877 30 6.25V28.75C29.999 29.0812 29.867 29.3986 29.6328 29.6328C29.3986 29.867 29.0812 29.999 28.75 30H6.25ZM35 33.75C34.999 34.0812 34.867 34.3986 34.6328 34.6328C34.3986 34.867 34.0812 34.999 33.75 35H11.25C10.9188 34.999 10.6014 34.867 10.3672 34.6328C10.133 34.3986 10.001 34.0812 10 33.75V32.5H28.75C29.7437 32.4971 30.6958 32.1011 31.3984 31.3984C32.1011 30.6958 32.4971 29.7437 32.5 28.75V10H33.75C34.0812 10.001 34.3986 10.133 34.6328 10.3672C34.867 10.6014 34.999 10.9188 35 11.25V33.75Z" fill="black"/>
<path d="M26.25 17.5C26.25 17.8315 26.1183 18.1495 25.8839 18.3839C25.6495 18.6183 25.3315 18.75 25 18.75H18.75V25C18.75 25.3315 18.6183 25.6495 18.3839 25.8839C18.1495 26.1183 17.8315 26.25 17.5 26.25C17.1685 26.25 16.8505 26.1183 16.6161 25.8839C16.3817 25.6495 16.25 25.3315 16.25 25V18.75H10C9.66848 18.75 9.35054 18.6183 9.11612 18.3839C8.8817 18.1495 8.75 17.8315 8.75 17.5C8.75 17.1685 8.8817 16.8505 9.11612 16.6161C9.35054 16.3817 9.66848 16.25 10 16.25H16.25V10C16.25 9.66848 16.3817 9.35054 16.6161 9.11612C16.8505 8.8817 17.1685 8.75 17.5 8.75C17.8315 8.75 18.1495 8.8817 18.3839 9.11612C18.6183 9.35054 18.75 9.66848 18.75 10V16.25H25C25.3315 16.25 25.6495 16.3817 25.8839 16.6161C26.1183 16.8505 26.25 17.1685 26.25 17.5Z" fill="black"/>
</svg>
